<?xml version="1.0" encoding="UTF-8" standalone="no"?>
<!DOCTYPE svg PUBLIC "-//W3C//DTD SVG 1.1//EN" "http://www.w3.org/Graphics/SVG/1.1/DTD/svg11.dtd">
<!-- Generated by graphviz version 2.40.1 (20161225.0304)
 -->
<!-- Title: condvar Pages: 1 -->
<svg width="589pt" height="413pt" viewBox="0.00 0.00 589.11 412.60" xmlns="http://www.w3.org/2000/svg" xmlns:xlink="http://www.w3.org/1999/xlink">
<g id="graph0" class="graph" transform="scale(1 1) rotate(0) translate(4 408.6)">
<title>condvar</title>
<polygon fill="#ffffff" stroke="transparent" points="-4,4 -4,-408.6 585.1074,-408.6 585.1074,4 -4,4"/>
<g id="clust1" class="cluster">
<title>cluster_0</title>
<polygon fill="none" stroke="#ff0000" points="424.8268,-150 424.8268,-233.8 506.8268,-233.8 506.8268,-150 424.8268,-150"/>
<text text-anchor="middle" x="465.8268" y="-217.2" font-family="Times,serif" font-size="14.00" fill="#000000">mutex logic</text>
</g>
<g id="clust2" class="cluster">
<title>cluster_1</title>
<polygon fill="none" stroke="#0000ff" points="67.8268,-80.1 67.8268,-396.6 217.8268,-396.6 217.8268,-80.1 67.8268,-80.1"/>
<text text-anchor="middle" x="142.8268" y="-380" font-family="Times,serif" font-size="14.00" fill="#000000">condition and skip logic</text>
</g>
<!-- wait_start -->
<g id="node1" class="node">
<title>wait_start</title>
<polygon fill="none" stroke="#000000" points="492.5305,-275.6008 421.1231,-275.6008 421.1231,-250.9992 492.5305,-250.9992 492.5305,-275.6008"/>
<text text-anchor="middle" x="456.8268" y="-259.1" font-family="Times,serif" font-size="14.00" fill="#000000">wait_start</text>
</g>
<!-- waiting -->
<g id="node6" class="node">
<title>waiting</title>
</g>
<!-- wait_start&#45;&gt;waiting -->
<!-- mutex -->
<g id="node9" class="node">
<title>mutex</title>
<ellipse fill="#d3d3d3" stroke="#000000" cx="465.8268" cy="-179.5" rx="21.5" ry="21.5"/>
<text text-anchor="middle" x="426.8289" y="-162.2" font-family="Times,serif" font-size="14.00" fill="#000000">mutex</text>
</g>
<!-- wait_start&#45;&gt;mutex -->
<g id="edge11" class="edge">
<title>wait_start-&gt;mutex</title>
<path fill="none" stroke="#000000" d="M458.1548,-250.935C459.277,-240.4863 460.9346,-225.0519 462.4222,-211.2008"/>
<polygon fill="#000000" stroke="#000000" points="465.927,-211.3428 463.5149,-201.0262 458.967,-210.5952 465.927,-211.3428"/>
</g>
<!-- lost_signal -->
<g id="node2" class="node">
<title>lost_signal</title>
<polygon fill="none" stroke="#000000" points="387.9937,-191.8008 311.6599,-191.8008 311.6599,-167.1992 387.9937,-167.1992 387.9937,-191.8008"/>
<text text-anchor="middle" x="349.8268" y="-175.3" font-family="Times,serif" font-size="14.00" fill="#000000">lost_signal</text>
</g>
<!-- wait_enabled -->
<g id="node4" class="node">
<title>wait_enabled</title>
<ellipse fill="none" stroke="#000000" cx="349.8268" cy="-263.3" rx="21.5" ry="21.5"/>
<text text-anchor="middle" x="349.8268" y="-259.1" font-family="Times,serif" font-size="14.00" fill="#000000">•</text>
<text text-anchor="middle" x="291.0084" y="-289" font-family="Times,serif" font-size="14.00" fill="#000000">wait_enabled</text>
</g>
<!-- lost_signal&#45;&gt;wait_enabled -->
<g id="edge3" class="edge">
<title>lost_signal-&gt;wait_enabled</title>
<path fill="none" stroke="#000000" d="M363.6142,-191.9185C368.629,-203.9317 369.8432,-222.4992 367.2566,-237.6861"/>
<polygon fill="#000000" stroke="#000000" points="363.8229,-236.9938 364.8586,-247.5379 370.6244,-238.6493 363.8229,-236.9938"/>
</g>
<!-- notify_received -->
<g id="node3" class="node">
<title>notify_received</title>
<polygon fill="none" stroke="#000000" points="520.6783,-112.8008 416.9753,-112.8008 416.9753,-88.1992 520.6783,-88.1992 520.6783,-112.8008"/>
<text text-anchor="middle" x="468.8268" y="-96.3" font-family="Times,serif" font-size="14.00" fill="#000000">notify_received</text>
</g>
<!-- notify_received&#45;&gt;wait_enabled -->
<g id="edge10" class="edge">
<title>notify_received-&gt;wait_enabled</title>
<path fill="none" stroke="#000000" d="M514.9329,-112.9615C533.4906,-120.4899 553.0245,-132.1906 563.8268,-150 583.1421,-181.8444 589.5286,-206.8451 563.8268,-233.8 550.9306,-247.3249 413.9683,-237.3143 395.8268,-241.8 389.7963,-243.2911 383.6003,-245.5904 377.7868,-248.14"/>
<polygon fill="#000000" stroke="#000000" points="375.9929,-245.1173 368.4611,-252.5686 378.9957,-251.4405 375.9929,-245.1173"/>
</g>
<!-- output -->
<g id="node8" class="node">
<title>output</title>
<ellipse fill="none" stroke="#000000" cx="468.8268" cy="-21.5" rx="21.5" ry="21.5"/>
<text text-anchor="middle" x="429.4362" y="-47.2" font-family="Times,serif" font-size="14.00" fill="#000000">output</text>
</g>
<!-- notify_received&#45;&gt;output -->
<g id="edge7" class="edge">
<title>notify_received-&gt;output</title>
<path fill="none" stroke="#000000" d="M468.8268,-88.1563C468.8268,-78.8926 468.8268,-65.7666 468.8268,-53.6092"/>
<polygon fill="#000000" stroke="#000000" points="472.3269,-53.2962 468.8268,-43.2962 465.3269,-53.2963 472.3269,-53.2962"/>
</g>
<!-- wait_enabled&#45;&gt;wait_start -->
<g id="edge8" class="edge">
<title>wait_enabled-&gt;wait_start</title>
<path fill="none" stroke="#000000" d="M371.5612,-263.3C384.7434,-263.3 397.9257,-263.3 411.1079,-263.3"/>
<polygon fill="#000000" stroke="#000000" points="411.1885,-266.8001 421.1884,-263.3 411.1884,-259.8001 411.1885,-266.8001"/>
</g>
<!-- wait_enabled&#45;&gt;lost_signal -->
<g id="edge1" class="edge">
<title>wait_enabled-&gt;lost_signal</title>
<path fill="none" stroke="#000000" d="M334.795,-247.5379C330.4959,-234.5663 329.9249,-216.03 333.0818,-201.5801"/>
<polygon fill="#000000" stroke="#000000" points="336.4589,-202.5051 336.0394,-191.9185 329.7655,-200.456 336.4589,-202.5051"/>
</g>
<!-- notify -->
<g id="node5" class="node">
<title>notify</title>
<ellipse fill="none" stroke="#000000" cx="345.8268" cy="-100.5" rx="21.5" ry="21.5"/>
<text text-anchor="middle" x="307.6059" y="-126.2" font-family="Times,serif" font-size="14.00" fill="#000000">notify</text>
</g>
<!-- notify&#45;&gt;lost_signal -->
<g id="edge2" class="edge">
<title>notify-&gt;lost_signal</title>
<path fill="none" stroke="#000000" d="M346.9145,-121.9827C347.465,-132.8539 348.1327,-146.0424 348.6899,-157.0467"/>
<polygon fill="#000000" stroke="#000000" points="345.2005,-157.3461 349.2018,-167.1563 352.1915,-156.992 345.2005,-157.3461"/>
</g>
<!-- notify&#45;&gt;notify_received -->
<g id="edge9" class="edge">
<title>notify-&gt;notify_received</title>
<path fill="none" stroke="#000000" d="M367.4479,-100.5C380.5967,-100.5 393.7455,-100.5 406.8943,-100.5"/>
<polygon fill="#000000" stroke="#000000" points="406.9493,-104.0001 416.9493,-100.5 406.9493,-97.0001 406.9493,-104.0001"/>
</g>
<!-- waiting&#45;&gt;notify_received -->
<!-- input -->
<g id="node7" class="node">
<title>input</title>
<ellipse fill="none" stroke="#000000" cx="456.8268" cy="-342.3" rx="21.5" ry="21.5"/>
<text text-anchor="middle" x="420.9362" y="-368" font-family="Times,serif" font-size="14.00" fill="#000000">input</text>
</g>
<!-- input&#45;&gt;wait_start -->
<g id="edge4" class="edge">
<title>input-&gt;wait_start</title>
<path fill="none" stroke="#000000" d="M456.8268,-320.7129C456.8268,-309.8857 456.8268,-296.7804 456.8268,-285.8259"/>
<polygon fill="#000000" stroke="#000000" points="460.3269,-285.7524 456.8268,-275.7524 453.3269,-285.7525 460.3269,-285.7524"/>
</g>
<!-- wait_skip -->
<g id="node12" class="node">
<title>wait_skip</title>
<polygon fill="#d3d3d3" stroke="#000000" points="210.2658,-112.8008 139.3878,-112.8008 139.3878,-88.1992 210.2658,-88.1992 210.2658,-112.8008"/>
<text text-anchor="middle" x="174.8268" y="-96.3" font-family="Times,serif" font-size="14.00" fill="#000000">wait_skip</text>
</g>
<!-- input&#45;&gt;wait_skip -->
<g id="edge13" class="edge">
<title>input-&gt;wait_skip</title>
<path fill="none" stroke="#000000" d="M435.421,-338.5468C403.7107,-332.1142 343.6168,-316.4934 302.8268,-284.8 244.6552,-239.6012 202.5812,-160.6147 184.5639,-122.4195"/>
<polygon fill="#000000" stroke="#000000" points="187.6828,-120.8247 180.3158,-113.2104 181.3265,-123.7569 187.6828,-120.8247"/>
</g>
<!-- mutex&#45;&gt;notify_received -->
<g id="edge12" class="edge">
<title>mutex-&gt;notify_received</title>
<path fill="none" stroke="#000000" d="M466.6466,-157.9129C467.0577,-147.0857 467.5554,-133.9804 467.9714,-123.0259"/>
<polygon fill="#000000" stroke="#000000" points="471.4718,-123.0781 468.3539,-112.9524 464.4769,-122.8124 471.4718,-123.0781"/>
</g>
<!-- condition_not_set -->
<g id="node10" class="node">
<title>condition_not_set</title>
<ellipse fill="#d3d3d3" stroke="#000000" cx="121.8268" cy="-342.3" rx="21.5" ry="21.5"/>
<text text-anchor="middle" x="50.1634" y="-325" font-family="Times,serif" font-size="14.00" fill="#000000">condition_not_set</text>
</g>
<!-- condition_not_set&#45;&gt;wait_start -->
<g id="edge16" class="edge">
<title>condition_not_set-&gt;wait_start</title>
<path fill="none" stroke="#000000" d="M143.1128,-338.8811C189.6307,-331.1854 303.648,-311.1004 396.8268,-284.8 402.9068,-283.0839 409.2592,-281.0638 415.4601,-278.9608"/>
<polygon fill="#000000" stroke="#000000" points="416.7337,-282.2233 425.0186,-275.6194 414.4238,-275.6154 416.7337,-282.2233"/>
</g>
<!-- set_condition -->
<g id="node13" class="node">
<title>set_condition</title>
<polygon fill="#d3d3d3" stroke="#000000" points="167.764,-275.6008 75.8896,-275.6008 75.8896,-250.9992 167.764,-250.9992 167.764,-275.6008"/>
<text text-anchor="middle" x="121.8268" y="-259.1" font-family="Times,serif" font-size="14.00" fill="#000000">set_condition</text>
</g>
<!-- condition_not_set&#45;&gt;set_condition -->
<g id="edge17" class="edge">
<title>condition_not_set-&gt;set_condition</title>
<path fill="none" stroke="#000000" d="M121.8268,-320.7129C121.8268,-309.8857 121.8268,-296.7804 121.8268,-285.8259"/>
<polygon fill="#000000" stroke="#000000" points="125.3269,-285.7524 121.8268,-275.7524 118.3269,-285.7525 125.3269,-285.7524"/>
</g>
<!-- condition_set -->
<g id="node11" class="node">
<title>condition_set</title>
<ellipse fill="#d3d3d3" stroke="#000000" cx="121.8268" cy="-179.5" rx="21.5" ry="21.5"/>
<text text-anchor="middle" x="62.6087" y="-205.2" font-family="Times,serif" font-size="14.00" fill="#000000">condition_set</text>
</g>
<!-- condition_set&#45;&gt;wait_skip -->
<g id="edge15" class="edge">
<title>condition_set-&gt;wait_skip</title>
<path fill="none" stroke="#000000" d="M133.8533,-161.5737C141.816,-149.7047 152.2937,-134.087 160.6603,-121.616"/>
<polygon fill="#000000" stroke="#000000" points="163.6485,-123.4442 166.3133,-113.19 157.8355,-119.5443 163.6485,-123.4442"/>
</g>
<!-- wait_skip&#45;&gt;output -->
<g id="edge14" class="edge">
<title>wait_skip-&gt;output</title>
<path fill="none" stroke="#000000" d="M210.2901,-90.9708C268.3985,-75.3566 382.9155,-44.585 437.9149,-29.8063"/>
<polygon fill="#000000" stroke="#000000" points="439.027,-33.1317 447.7762,-27.1565 437.2105,-26.3715 439.027,-33.1317"/>
</g>
<!-- set_condition&#45;&gt;condition_set -->
<g id="edge18" class="edge">
<title>set_condition-&gt;condition_set</title>
<path fill="none" stroke="#000000" d="M121.8268,-250.935C121.8268,-240.4863 121.8268,-225.0519 121.8268,-211.2008"/>
<polygon fill="#000000" stroke="#000000" points="125.3269,-211.0261 121.8268,-201.0262 118.3269,-211.0262 125.3269,-211.0261"/>
</g>
</g>
</svg>