<?xml version="1.0" encoding="UTF-8" standalone="no"?>
<!DOCTYPE svg PUBLIC "-//W3C//DTD SVG 1.1//EN" "http://www.w3.org/Graphics/SVG/1.1/DTD/svg11.dtd">
<!-- Generated by graphviz version 2.40.1 (20161225.0304)
 -->
<!-- Title: condvar Pages: 1 -->
<svg width="547pt" height="413pt" viewBox="0.00 0.00 546.82 412.60" xmlns="http://www.w3.org/2000/svg" xmlns:xlink="http://www.w3.org/1999/xlink">
<g id="graph0" class="graph" transform="scale(1 1) rotate(0) translate(4 408.6)">
<title>condvar</title>
<polygon fill="#ffffff" stroke="transparent" points="-4,4 -4,-408.6 542.8184,-408.6 542.8184,4 -4,4"/>
<g id="clust1" class="cluster">
<title>cluster_0</title>
<polygon fill="none" stroke="#ff0000" points="393.8268,-150 393.8268,-233.8 475.8268,-233.8 475.8268,-150 393.8268,-150"/>
<text text-anchor="middle" x="434.8268" y="-217.2" font-family="Times,serif" font-size="14.00" fill="#000000">mutex logic</text>
</g>
<g id="clust2" class="cluster">
<title>cluster_1</title>
<polygon fill="none" stroke="#0000ff" points="55.8268,-80.1 55.8268,-396.6 205.8268,-396.6 205.8268,-80.1 55.8268,-80.1"/>
<text text-anchor="middle" x="130.8268" y="-380" font-family="Times,serif" font-size="14.00" fill="#000000">condition and skip logic</text>
</g>
<!-- wait_start -->
<g id="node1" class="node">
<title>wait_start</title>
<polygon fill="none" stroke="#000000" points="461.5305,-275.6008 390.1231,-275.6008 390.1231,-250.9992 461.5305,-250.9992 461.5305,-275.6008"/>
<text text-anchor="middle" x="425.8268" y="-259.1" font-family="Times,serif" font-size="14.00" fill="#000000">wait_start</text>
</g>
<!-- waiting -->
<g id="node6" class="node">
<title>waiting</title>
</g>
<!-- wait_start&#45;&gt;waiting -->
<!-- mutex -->
<g id="node9" class="node">
<title>mutex</title>
<ellipse fill="#d3d3d3" stroke="#000000" cx="434.8268" cy="-179.5" rx="21.5" ry="21.5"/>
<text text-anchor="middle" x="395.8289" y="-162.2" font-family="Times,serif" font-size="14.00" fill="#000000">mutex</text>
</g>
<!-- wait_start&#45;&gt;mutex -->
<g id="edge11" class="edge">
<title>wait_start-&gt;mutex</title>
<path fill="none" stroke="#000000" d="M427.1548,-250.935C428.277,-240.4863 429.9346,-225.0519 431.4222,-211.2008"/>
<polygon fill="#000000" stroke="#000000" points="434.927,-211.3428 432.5149,-201.0262 427.967,-210.5952 434.927,-211.3428"/>
</g>
<!-- condition_not_set -->
<g id="node10" class="node">
<title>condition_not_set</title>
<ellipse fill="#d3d3d3" stroke="#000000" cx="121.8268" cy="-342.3" rx="21.5" ry="21.5"/>
<text text-anchor="middle" x="121.8268" y="-338.1" font-family="Times,serif" font-size="14.00" fill="#000000">•</text>
<text text-anchor="middle" x="50.1634" y="-325" font-family="Times,serif" font-size="14.00" fill="#000000">condition_not_set</text>
</g>
<!-- wait_start&#45;&gt;condition_not_set -->
<g id="edge18" class="edge">
<title>wait_start-&gt;condition_not_set</title>
<path fill="none" stroke="#000000" d="M416.4831,-275.656C408.8189,-278.8648 399.5304,-282.1581 390.8268,-284.8 307.6613,-310.0445 205.8896,-330.546 153.5686,-338.609"/>
<polygon fill="#000000" stroke="#000000" points="152.8639,-335.175 143.4812,-340.0958 153.8848,-342.1001 152.8639,-335.175"/>
</g>
<!-- lost_signal -->
<g id="node2" class="node">
<title>lost_signal</title>
<polygon fill="none" stroke="#000000" points="363.9937,-191.8008 287.6599,-191.8008 287.6599,-167.1992 363.9937,-167.1992 363.9937,-191.8008"/>
<text text-anchor="middle" x="325.8268" y="-175.3" font-family="Times,serif" font-size="14.00" fill="#000000">lost_signal</text>
</g>
<!-- wait_enabled -->
<g id="node4" class="node">
<title>wait_enabled</title>
<ellipse fill="none" stroke="#000000" cx="325.8268" cy="-263.3" rx="21.5" ry="21.5"/>
<text text-anchor="middle" x="325.8268" y="-259.1" font-family="Times,serif" font-size="14.00" fill="#000000">•</text>
<text text-anchor="middle" x="267.0084" y="-289" font-family="Times,serif" font-size="14.00" fill="#000000">wait_enabled</text>
</g>
<!-- lost_signal&#45;&gt;wait_enabled -->
<g id="edge3" class="edge">
<title>lost_signal-&gt;wait_enabled</title>
<path fill="none" stroke="#000000" d="M337.9202,-191.8115C342.214,-203.4095 343.3699,-221.1844 341.3879,-236.1081"/>
<polygon fill="#000000" stroke="#000000" points="337.871,-235.8565 339.3902,-246.3418 344.7413,-237.1977 337.871,-235.8565"/>
</g>
<!-- notify_received -->
<g id="node3" class="node">
<title>notify_received</title>
<polygon fill="none" stroke="#000000" points="489.6783,-112.8008 385.9753,-112.8008 385.9753,-88.1992 489.6783,-88.1992 489.6783,-112.8008"/>
<text text-anchor="middle" x="437.8268" y="-96.3" font-family="Times,serif" font-size="14.00" fill="#000000">notify_received</text>
</g>
<!-- notify_received&#45;&gt;wait_enabled -->
<g id="edge10" class="edge">
<title>notify_received-&gt;wait_enabled</title>
<path fill="none" stroke="#000000" d="M475.6627,-112.8297C492.9796,-120.5851 511.833,-132.5108 521.8268,-150 540.3052,-182.3372 547.4658,-206.7854 521.8268,-233.8 510.108,-246.1475 385.2868,-237.4575 368.8268,-241.8 363.7122,-243.1493 358.4947,-245.1482 353.5387,-247.3924"/>
<polygon fill="#000000" stroke="#000000" points="351.835,-244.3303 344.4261,-251.9039 354.9409,-250.6036 351.835,-244.3303"/>
</g>
<!-- output -->
<g id="node8" class="node">
<title>output</title>
<ellipse fill="none" stroke="#000000" cx="437.8268" cy="-21.5" rx="21.5" ry="21.5"/>
<text text-anchor="middle" x="398.4362" y="-47.2" font-family="Times,serif" font-size="14.00" fill="#000000">output</text>
</g>
<!-- notify_received&#45;&gt;output -->
<g id="edge7" class="edge">
<title>notify_received-&gt;output</title>
<path fill="none" stroke="#000000" d="M437.8268,-88.1563C437.8268,-78.8926 437.8268,-65.7666 437.8268,-53.6092"/>
<polygon fill="#000000" stroke="#000000" points="441.3269,-53.2962 437.8268,-43.2962 434.3269,-53.2963 441.3269,-53.2962"/>
</g>
<!-- wait_enabled&#45;&gt;wait_start -->
<g id="edge8" class="edge">
<title>wait_enabled-&gt;wait_start</title>
<path fill="none" stroke="#000000" d="M347.7018,-263.3C358.4171,-263.3 369.1325,-263.3 379.8478,-263.3"/>
<polygon fill="#000000" stroke="#000000" points="380.1213,-266.8001 390.1212,-263.3 380.1212,-259.8001 380.1213,-266.8001"/>
</g>
<!-- wait_enabled&#45;&gt;lost_signal -->
<g id="edge1" class="edge">
<title>wait_enabled-&gt;lost_signal</title>
<path fill="none" stroke="#000000" d="M312.7771,-245.9366C309.5621,-233.1005 309.218,-215.5209 311.7447,-201.6693"/>
<polygon fill="#000000" stroke="#000000" points="315.1449,-202.4997 314.2365,-191.9439 308.364,-200.7623 315.1449,-202.4997"/>
</g>
<!-- notify -->
<g id="node5" class="node">
<title>notify</title>
<ellipse fill="none" stroke="#000000" cx="321.8268" cy="-100.5" rx="21.5" ry="21.5"/>
<text text-anchor="middle" x="283.6059" y="-126.2" font-family="Times,serif" font-size="14.00" fill="#000000">notify</text>
</g>
<!-- notify&#45;&gt;lost_signal -->
<g id="edge2" class="edge">
<title>notify-&gt;lost_signal</title>
<path fill="none" stroke="#000000" d="M322.9145,-121.9827C323.465,-132.8539 324.1327,-146.0424 324.6899,-157.0467"/>
<polygon fill="#000000" stroke="#000000" points="321.2005,-157.3461 325.2018,-167.1563 328.1915,-156.992 321.2005,-157.3461"/>
</g>
<!-- notify&#45;&gt;notify_received -->
<g id="edge9" class="edge">
<title>notify-&gt;notify_received</title>
<path fill="none" stroke="#000000" d="M343.5768,-100.5C354.2718,-100.5 364.9667,-100.5 375.6617,-100.5"/>
<polygon fill="#000000" stroke="#000000" points="375.9157,-104.0001 385.9157,-100.5 375.9156,-97.0001 375.9157,-104.0001"/>
</g>
<!-- waiting&#45;&gt;notify_received -->
<!-- input -->
<g id="node7" class="node">
<title>input</title>
<ellipse fill="none" stroke="#000000" cx="425.8268" cy="-342.3" rx="21.5" ry="21.5"/>
<text text-anchor="middle" x="425.8268" y="-338.1" font-family="Times,serif" font-size="14.00" fill="#000000">•</text>
<text text-anchor="middle" x="389.9362" y="-368" font-family="Times,serif" font-size="14.00" fill="#000000">input</text>
</g>
<!-- input&#45;&gt;wait_start -->
<g id="edge4" class="edge">
<title>input-&gt;wait_start</title>
<path fill="none" stroke="#000000" d="M425.8268,-320.7129C425.8268,-309.8857 425.8268,-296.7804 425.8268,-285.8259"/>
<polygon fill="#000000" stroke="#000000" points="429.3269,-285.7524 425.8268,-275.7524 422.3269,-285.7525 429.3269,-285.7524"/>
</g>
<!-- wait_skip -->
<g id="node12" class="node">
<title>wait_skip</title>
<polygon fill="#d3d3d3" stroke="#000000" points="174.2658,-112.8008 103.3878,-112.8008 103.3878,-88.1992 174.2658,-88.1992 174.2658,-112.8008"/>
<text text-anchor="middle" x="138.8268" y="-96.3" font-family="Times,serif" font-size="14.00" fill="#000000">wait_skip</text>
</g>
<!-- input&#45;&gt;wait_skip -->
<g id="edge13" class="edge">
<title>input-&gt;wait_skip</title>
<path fill="none" stroke="#000000" d="M404.6911,-337.513C375.1561,-330.0466 320.8897,-313.4321 282.8268,-284.8 266.5895,-272.5858 187.7148,-166.8076 154.076,-121.2399"/>
<polygon fill="#000000" stroke="#000000" points="156.7343,-118.9474 147.9834,-112.9748 151.0997,-123.1009 156.7343,-118.9474"/>
</g>
<!-- mutex&#45;&gt;notify_received -->
<g id="edge12" class="edge">
<title>mutex-&gt;notify_received</title>
<path fill="none" stroke="#000000" d="M435.6466,-157.9129C436.0577,-147.0857 436.5554,-133.9804 436.9714,-123.0259"/>
<polygon fill="#000000" stroke="#000000" points="440.4718,-123.0781 437.3539,-112.9524 433.4769,-122.8124 440.4718,-123.0781"/>
</g>
<!-- condition_not_set&#45;&gt;wait_start -->
<g id="edge17" class="edge">
<title>condition_not_set-&gt;wait_start</title>
<path fill="none" stroke="#000000" d="M142.5117,-335.7191C183.7261,-326.2579 273.256,-307.4356 347.8268,-284.8 358.1591,-281.6637 369.3158,-277.6095 380.3281,-273.8683"/>
<polygon fill="#000000" stroke="#000000" points="381.5463,-277.1519 389.944,-270.6921 379.3508,-270.5051 381.5463,-277.1519"/>
</g>
<!-- set_condition -->
<g id="node13" class="node">
<title>set_condition</title>
<polygon fill="#d3d3d3" stroke="#000000" points="167.764,-275.6008 75.8896,-275.6008 75.8896,-250.9992 167.764,-250.9992 167.764,-275.6008"/>
<text text-anchor="middle" x="121.8268" y="-259.1" font-family="Times,serif" font-size="14.00" fill="#000000">set_condition</text>
</g>
<!-- condition_not_set&#45;&gt;set_condition -->
<g id="edge19" class="edge">
<title>condition_not_set-&gt;set_condition</title>
<path fill="none" stroke="#000000" d="M121.8268,-320.7129C121.8268,-309.8857 121.8268,-296.7804 121.8268,-285.8259"/>
<polygon fill="#000000" stroke="#000000" points="125.3269,-285.7524 121.8268,-275.7524 118.3269,-285.7525 125.3269,-285.7524"/>
</g>
<!-- condition_set -->
<g id="node11" class="node">
<title>condition_set</title>
<ellipse fill="#d3d3d3" stroke="#000000" cx="131.8268" cy="-179.5" rx="21.5" ry="21.5"/>
<text text-anchor="middle" x="72.6087" y="-205.2" font-family="Times,serif" font-size="14.00" fill="#000000">condition_set</text>
</g>
<!-- condition_set&#45;&gt;wait_skip -->
<g id="edge15" class="edge">
<title>condition_set-&gt;wait_skip</title>
<path fill="none" stroke="#000000" d="M119.9152,-161.1772C118.2774,-149.755 119.3146,-134.9784 122.4934,-122.8672"/>
<polygon fill="#000000" stroke="#000000" points="125.9219,-123.6558 125.8247,-113.0614 119.2939,-121.404 125.9219,-123.6558"/>
</g>
<!-- wait_skip&#45;&gt;output -->
<g id="edge14" class="edge">
<title>wait_skip-&gt;output</title>
<path fill="none" stroke="#000000" d="M174.3002,-91.1274C233.4249,-75.5058 351.1314,-44.4061 407.008,-29.6428"/>
<polygon fill="#000000" stroke="#000000" points="407.9196,-33.0221 416.6938,-27.0836 406.1314,-26.2543 407.9196,-33.0221"/>
</g>
<!-- wait_skip&#45;&gt;condition_set -->
<g id="edge16" class="edge">
<title>wait_skip-&gt;condition_set</title>
<path fill="none" stroke="#000000" d="M150.1409,-112.9606C153.2097,-123.9416 152.8018,-140.2836 149.6228,-154.0239"/>
<polygon fill="#000000" stroke="#000000" points="146.1835,-153.3082 146.6634,-163.8921 152.8885,-155.319 146.1835,-153.3082"/>
</g>
<!-- set_condition&#45;&gt;condition_set -->
<g id="edge20" class="edge">
<title>set_condition-&gt;condition_set</title>
<path fill="none" stroke="#000000" d="M123.3023,-250.935C124.5492,-240.4863 126.391,-225.0519 128.0439,-211.2008"/>
<polygon fill="#000000" stroke="#000000" points="131.5484,-211.3705 129.258,-201.0262 124.5977,-210.541 131.5484,-211.3705"/>
</g>
</g>
</svg>